<?xml version="1.0" encoding="UTF-8"?>
<svg version="1.1" xmlns="http://www.w3.org/2000/svg" width="496" height="271">
<path d="M0 0 C163.68 0 327.36 0 496 0 C496 89.43 496 178.86 496 271 C332.32 271 168.64 271 0 271 C0 181.57 0 92.14 0 0 Z " fill="#000062" transform="translate(0,0)"/>
<path d="M0 0 C6.17137739 5.27468153 6.17137739 5.27468153 8.125 7.5 C8.125 8.16 8.125 8.82 8.125 9.5 C9.115 9.83 10.105 10.16 11.125 10.5 C12.37421872 11.94646379 13.6185633 13.39820413 14.8125 14.890625 C17.74747219 18.48945994 21.13593342 21.53152644 24.6875 24.5 C27.56727883 26.93195146 29.82157391 29.50554608 32.125 32.5 C34.65692181 35.16518085 37.20232436 37.56251757 40.0625 39.875 C42.96910589 42.24500172 45.2923667 44.92537383 47.6875 47.80078125 C50.40456325 51.01252721 53.30147692 53.86176961 56.625 56.4375 C59.54820625 58.84914516 61.73095036 61.5672892 64.125 64.5 C67.37422683 67.8099979 70.7004555 71.03801982 74.03125 74.265625 C75.89611773 76.09345989 77.76069241 77.9215938 79.625 79.75 C80.56214844 80.65363281 81.49929687 81.55726563 82.46484375 82.48828125 C88.6002849 88.53669487 94.14748302 94.20562234 95.75390625 102.90625 C95.53958153 112.89126043 93.43338137 120.35402711 86.125 127.5 C79.78046183 132.82941206 72.85006074 133.42191893 64.8515625 132.9609375 C48.95930863 130.99522895 32.74503954 108.29849267 21.96875 97.546875 C20.70518425 96.28755032 20.70518425 96.28755032 19.41609192 95.00278473 C14.97263454 90.57419316 10.53196129 86.14283323 6.09375 81.70898438 C1.52667408 77.14742672 -3.04963659 72.59525042 -7.6280899 68.04511642 C-11.16936042 64.52248512 -14.70389007 60.99314857 -18.23661804 57.46195221 C-19.92136516 55.78022069 -21.60859992 54.10097727 -23.29841614 52.42433929 C-25.65728211 50.08258741 -28.00643666 47.73148736 -30.35351562 45.37792969 C-31.04447327 44.69618683 -31.73543091 44.01444397 -32.44732666 43.31204224 C-39.65608061 36.04098651 -44.24333865 29.02716732 -45.25 18.625 C-44.99659293 10.90353759 -40.86013263 4.73227855 -35.73828125 -0.7734375 C-24.72112879 -10.98220351 -10.92154085 -8.86114462 0 0 Z " fill="#FCFCFC" transform="translate(152.875,69.5)"/>
<path d="M0 0 C0.80367508 -0.00817749 1.60735016 -0.01635498 2.43537903 -0.02478027 C5.09810651 -0.04961193 7.76078057 -0.06614879 10.42358398 -0.08056641 C11.3350865 -0.08589008 12.24658901 -0.09121376 13.18571281 -0.09669876 C18.0147505 -0.12342669 22.84376243 -0.14279865 27.67285156 -0.15722656 C31.65843794 -0.17053972 35.64350918 -0.19834418 39.62890625 -0.23925781 C44.44998907 -0.28874655 49.27060634 -0.31336806 54.0919323 -0.32045364 C55.92304503 -0.32714075 57.75414841 -0.34229612 59.58511543 -0.36634445 C78.97325694 -0.60636682 78.97325694 -0.60636682 86.10717773 5.19287109 C89.31823817 9.18457723 90.42633545 12.69409586 90.10717773 17.81787109 C89.18791609 23.14958865 87.02487302 26.80254201 82.60717773 30.00537109 C78.30811522 32.04742579 74.71302033 32.3160537 69.96166992 32.30639648 C68.72068542 32.30632095 67.47970093 32.30624542 66.20111084 32.3061676 C64.85209106 32.3010614 63.50307169 32.29584542 62.15405273 32.29052734 C60.76971488 32.28866134 59.38537635 32.2872383 58.0010376 32.28623962 C54.36456466 32.28242882 50.72813191 32.27261084 47.0916748 32.26153564 C43.37809798 32.2512906 39.66451463 32.24673538 35.95092773 32.24169922 C28.66965945 32.23098725 21.38842423 32.21392813 14.10717773 32.19287109 C14.12288818 33.46404785 14.13859863 34.73522461 14.15478516 36.04492188 C14.20921023 40.77483753 14.24357366 45.50472565 14.27197266 50.23486328 C14.28703061 52.27950704 14.3074813 54.32411864 14.33349609 56.36865234 C14.37001084 59.31274361 14.38693424 62.25640667 14.40014648 65.20068359 C14.41563034 66.11028839 14.4311142 67.01989319 14.44706726 67.95706177 C14.44883031 74.65187006 13.21438857 78.81550503 8.66967773 83.94287109 C3.82802784 88.19407588 0.13222765 88.63125418 -6.20141602 88.51318359 C-11.67651045 87.86157584 -15.38859449 84.21624372 -18.89282227 80.19287109 C-19.99669748 76.88124545 -20.03990091 74.37763762 -20.06982422 70.88891602 C-20.08265945 69.58713913 -20.09549469 68.28536224 -20.10871887 66.94413757 C-20.11688666 65.52054221 -20.12433032 64.09694253 -20.13110352 62.67333984 C-20.13517904 61.95543085 -20.13925457 61.23752186 -20.1434536 60.49785805 C-20.164297 56.69787511 -20.17860609 52.89792809 -20.18798828 49.09790039 C-20.1990486 45.18041613 -20.2334483 41.26350053 -20.27315998 37.34621716 C-20.29934985 34.32724477 -20.30768217 31.30840742 -20.31126976 28.28933144 C-20.31612973 26.84567741 -20.32772705 25.40202918 -20.34630775 23.95848656 C-20.37074464 21.93413432 -20.36730993 19.90950445 -20.36279297 17.88500977 C-20.36865921 16.73489914 -20.37452545 15.58478851 -20.38056946 14.39982605 C-19.61032505 9.33544195 -17.06594786 6.25154541 -13.33032227 2.88037109 C-9.01681966 -0.10589994 -5.0533342 0.02836353 0 0 Z " fill="#50B0E6" transform="translate(301.892822265625,110.80712890625)"/>
<path d="M0 0 C0.84809235 -0.0071553 1.69618469 -0.01431061 2.56997681 -0.02168274 C5.35580352 -0.03850449 8.14000606 -0.019206 10.92578125 0.00219727 C12.87199028 0.00136796 14.81819924 -0.00109373 16.7644043 -0.00511169 C20.83631562 -0.00796523 24.90767554 0.00668818 28.97949219 0.03417969 C34.18821461 0.06826153 39.39595146 0.06223993 44.60472107 0.04351711 C48.62146153 0.03292792 52.63797429 0.0419024 56.6546936 0.05690193 C58.57475101 0.06207011 60.49483233 0.06161857 62.41488647 0.05535698 C65.10262852 0.04988154 67.78897919 0.07035373 70.4765625 0.09765625 C71.26326324 0.09113037 72.04996399 0.08460449 72.86050415 0.07788086 C78.41378265 0.17337684 81.64586569 1.48123019 86.23828125 4.63110352 C89.60286873 8.26131632 91.03117165 10.87067188 91.61328125 15.81860352 C91.04616066 21.58432953 88.36659038 25.69058637 84.11328125 29.56860352 C79.84761388 31.98581502 75.70163604 31.80516383 70.9465332 31.83984375 C70.10063126 31.84962753 69.25472931 31.85941132 68.38319397 31.86949158 C65.58099944 31.89942833 62.77885265 31.92082793 59.9765625 31.93969727 C58.53936891 31.94955501 58.53936891 31.94955501 57.0731411 31.95961189 C52.000029 31.99220027 46.92693785 32.01665069 41.85375977 32.03613281 C37.66041407 32.05393464 33.46774226 32.08873767 29.2746582 32.13867188 C24.20717799 32.19894597 19.14032183 32.2296186 14.07250023 32.2393055 C12.14481534 32.24785004 10.21714667 32.26664344 8.28966713 32.29604912 C-9.92468029 32.55893237 -9.92468029 32.55893237 -15.56575012 27.20863342 C-18.96443258 22.72563688 -19.24120399 18.09723521 -18.76171875 12.63110352 C-17.20650556 7.32508206 -15.22175562 4.68518468 -10.79135132 1.66765022 C-7.26146832 -0.13508425 -3.89771695 -0.05792912 0 0 Z " fill="#50B0E7" transform="translate(300.76171875,61.368896484375)"/>
<path d="M0 0 C3.64048642 1.70695031 5.97004827 3.73878731 8.80859375 6.61328125 C9.72060547 7.53173828 10.63261719 8.45019531 11.57226562 9.39648438 C12.52747384 10.36836175 13.48255093 11.340368 14.4375 12.3125 C15.38820522 13.27324846 16.33937285 14.23353957 17.29101562 15.19335938 C19.05234686 16.97209262 20.81161281 18.75287508 22.56811523 20.53637695 C25.03468941 23.03514214 27.5149589 25.51961108 30 28 C35 33 35 33 37.3359375 35.34375 C39.07029847 37.07302486 40.81464553 38.7923604 42.5703125 40.5 C43.41335937 41.325 44.25640625 42.15 45.125 43 C45.97320312 43.825 46.82140625 44.65 47.6953125 45.5 C50.77026492 48.83554161 52.76410231 51.55512666 53.5 56.0625 C52.53061328 63.6964204 49.88285174 70.78633624 44.125 76.0625 C36.40783268 81.93270149 29.5274666 82.85735124 20 82 C13.31130662 80.13593791 7.5705916 75.75985955 3.640625 70.01171875 C-0.76454432 61.79192816 -0.13642886 52.94250071 -0.09765625 43.84765625 C-0.0962413 42.59238632 -0.09482635 41.33711639 -0.09336853 40.04380798 C-0.08873576 36.72794649 -0.07977139 33.41215548 -0.06866455 30.09631348 C-0.05838292 26.70418909 -0.05385653 23.31205739 -0.04882812 19.91992188 C-0.03782572 13.27992864 -0.02110753 6.63996839 0 0 Z " fill="#FAFBFB" transform="translate(108,120)"/>
<path d="M0 0 C3 2.0625 3 2.0625 5 4 C5 4.66 5 5.32 5 6 C5.66 6 6.32 6 7 6 C10.81118228 12.669569 10.88006068 19.46394645 10 27 C7.97790889 33.7403037 3.95957034 37.29787487 -1.9140625 40.90625 C-7.76698465 43.97519794 -15.03065298 44.0927224 -21.35546875 42.3515625 C-27.73765572 39.46291308 -32.13329515 34.52656202 -34.875 28.125 C-36.96875032 21.56626406 -36.8042988 16.13164628 -34 9.8125 C-30.75905474 3.89225057 -26.33492895 0.93074834 -20.625 -2.375 C-13.43463067 -4.0869927 -6.54932378 -3.44166238 0 0 Z " fill="#50AEE6" transform="translate(236,65)"/>
<path d="M0 0 C4.39290483 4.39071488 8.78022891 8.78698678 13.16748047 13.18334961 C21.41102096 21.44326222 29.65711424 29.70062249 37.9046917 37.95650387 C42.89045951 42.94742844 47.87527986 47.93929258 52.85791016 52.93334961 C57.68540217 57.7719064 62.51553121 62.60781797 67.34726334 67.44214058 C69.18448286 69.28120335 71.02082411 71.12114396 72.85625839 72.96198845 C75.42641391 75.5394226 77.9997021 78.11369022 80.57373047 80.68725586 C81.32617035 81.44329102 82.07861023 82.19932617 82.85385132 82.97827148 C87.08158463 87.19780989 91.41283421 91.17326578 96 95 C95.67 95.66 95.34 96.32 95 97 C91.51375944 96.3543999 88.87501211 95.07639763 86 93 C86 92.01 86 91.02 86 90 C84.515 89.505 84.515 89.505 83 89 C82.67 88.01 82.34 87.02 82 86 C81.34 85.67 80.68 85.34 80 85 C80 84.34 80 83.68 80 83 C79.34 83 78.68 83 78 83 C75.79679002 81.07219127 74.22198195 79.45702165 72.9375 76.8125 C72.0805106 74.63941744 72.0805106 74.63941744 69 74 C67.98648336 72.34151823 66.98879205 70.67334039 66 69 C64.37347684 67.29413425 62.70993434 65.6222454 61 64 C60.34 63.34 59.68 62.68 59 62 C57.09291157 61.08571661 57.09291157 61.08571661 55 61 C53.41666667 62.41666667 53.41666667 62.41666667 52 64 C51.01 64 50.02 64 49 64 C49.33 64.99 49.66 65.98 50 67 C45.663068 65.60571103 43.3026632 63.59877071 40.1875 60.3125 C37.11308127 57.13743066 34.03903731 54.06931428 30.6875 51.1875 C26.15054532 47.28318841 22.08966727 43.10647678 18.125 38.625 C13.2610467 33.16647177 8.09294445 28.03610307 2.87744141 22.91455078 C2.24628418 22.29177246 1.61512695 21.66899414 0.96484375 21.02734375 C0.3937085 20.46781006 -0.17742676 19.90827637 -0.76586914 19.33178711 C-2 18 -2 18 -2 17 C-0.35 17 1.3 17 3 17 C3.33 18.65 3.66 20.3 4 22 C4.66 22 5.32 22 6 22 C6 22.66 6 23.32 6 24 C8.31 24 10.62 24 13 24 C12.67 23.01 12.34 22.02 12 21 C12.66 20.67 13.32 20.34 14 20 C13.34 19.38125 12.68 18.7625 12 18.125 C10 16 10 16 10 14 C9.34 14 8.68 14 8 14 C8 12.68 8 11.36 8 10 C6.02 9.34 4.04 8.68 2 8 C2 7.01 2 6.02 2 5 C1.34 5 0.68 5 0 5 C0 3.35 0 1.7 0 0 Z " fill="#05055F" transform="translate(112,103)"/>
<path d="M0 0 C0.84794632 -0.00700928 1.69589264 -0.01401855 2.5695343 -0.02124023 C5.36057706 -0.03878344 8.15059807 -0.02720965 10.94165039 -0.01367188 C12.88928928 -0.0163681 14.83692686 -0.02025161 16.78456116 -0.02526855 C20.86236411 -0.03115884 24.93981605 -0.02261666 29.01757812 -0.00390625 C34.23414826 0.01886776 39.44989445 0.00576696 44.66643429 -0.01819611 C48.68744567 -0.03267969 52.70826311 -0.02803608 56.72928047 -0.01768494 C58.65213685 -0.01502394 60.57501106 -0.01826527 62.4978466 -0.02760315 C65.190442 -0.03780926 67.88172091 -0.02221077 70.57421875 0 C71.75662643 -0.01214539 71.75662643 -0.01214539 72.96292114 -0.02453613 C79.42642037 0.07379675 83.05143871 2.24857518 88.35180664 5.89257812 C89.35180664 7.51757812 89.35180664 7.51757812 89.03930664 10.70507812 C88.81243164 11.63320312 88.58555664 12.56132813 88.35180664 13.51757812 C87.36180664 13.02257812 87.36180664 13.02257812 86.35180664 12.51757812 C86.35180664 11.19757813 86.35180664 9.87757812 86.35180664 8.51757812 C85.60930664 8.22882813 84.86680664 7.94007812 84.10180664 7.64257812 C81.35180664 6.51757812 81.35180664 6.51757812 79.41430664 5.45507812 C74.63143135 3.2810439 69.44567673 3.3978183 64.2800293 3.41992188 C63.59949997 3.42138214 62.91897064 3.42284241 62.21781921 3.42434692 C60.7495513 3.42813323 59.28128786 3.43422875 57.81303787 3.44241333 C55.48320858 3.45525819 53.15343673 3.46171354 50.82357788 3.46655273 C45.03711988 3.47987471 39.25071667 3.50405779 33.46429443 3.5279541 C28.57023799 3.54775602 23.6762022 3.56336793 18.78211594 3.57351685 C16.49782318 3.57995288 14.21361665 3.59246102 11.92935181 3.60522461 C5.32725457 3.62819148 -1.12196873 3.59907286 -7.64819336 2.51757812 C-7.64819336 3.17757812 -7.64819336 3.83757812 -7.64819336 4.51757812 C-9.2744574 5.89990256 -10.94069356 7.23695328 -12.64819336 8.51757812 C-13.30819336 7.19757813 -13.96819336 5.87757812 -14.64819336 4.51757812 C-9.69734275 0.55677478 -6.25065755 -0.06404068 0 0 Z " fill="#63A3EA" transform="translate(300.648193359375,61.482421875)"/>
<path d="M0 0 C1.33227357 3.9968207 0.60312964 7.18247131 0.05859375 11.30859375 C-0.00427196 14.19622514 0.49412103 15.57799694 2 18 C2.66 17.67 3.32 17.34 4 17 C6 19 6 19 7.5 21.125 C7.995 21.74375 8.49 22.3625 9 23 C9.66 23 10.32 23 11 23 C12.79533941 23.00729275 14.59067865 23.01463082 16.38601685 23.0222168 C25.2332637 23.05927482 34.08050136 23.08539527 42.92780685 23.10362434 C47.82625674 23.11406309 52.72463702 23.12823037 57.62304688 23.15087891 C62.35860121 23.17263377 67.09408858 23.18457362 71.82968903 23.18975449 C73.63336493 23.19344391 75.43703724 23.20064844 77.24068451 23.21146011 C79.76828401 23.22601134 82.29560743 23.22797648 84.82324219 23.22705078 C85.93631241 23.23783661 85.93631241 23.23783661 87.0718689 23.24884033 C91.42663333 23.23162134 94.95143705 22.60353036 99 21 C99.99 21.99 99.99 21.99 101 23 C95.93576433 26.03128659 92.08976348 26.44565442 86.36767578 26.43579102 C85.52133575 26.44586685 84.67499573 26.45594269 83.80300903 26.46632385 C81.01697427 26.49472187 78.23148281 26.50067613 75.4453125 26.50390625 C73.50006898 26.51355264 71.55482762 26.52364551 69.60958862 26.53416443 C65.53606116 26.55210511 61.46272433 26.55768754 57.38916016 26.5559082 C52.18143521 26.55560338 46.97493784 26.59656585 41.76750374 26.64822483 C37.75074704 26.68165752 33.73428498 26.68766368 29.71740341 26.68607903 C27.79812258 26.68960823 25.87883323 26.70281669 23.95969009 26.72607613 C5.85710027 26.92494844 5.85710027 26.92494844 0.19967651 21.57505798 C-3.20838942 17.10060058 -3.4791518 12.46233056 -3 7 C-2.16826766 4.5384569 -1.14745057 2.34271158 0 0 Z " fill="#6396DE" transform="translate(285,67)"/>
<path d="M0 0 C1.11696762 0.0199855 2.23393524 0.03997101 3.38475037 0.06056213 C4.64598221 0.08065842 5.90721405 0.1007547 7.20666504 0.12145996 C8.59342151 0.14866045 9.98017582 0.17597123 11.3669281 0.2033844 C12.77796691 0.22767566 14.18901349 0.25151971 15.60006714 0.27493286 C19.32049886 0.33787286 23.04079374 0.40691114 26.76109314 0.47718811 C30.55477141 0.54778228 34.34854699 0.61265252 38.14231873 0.67799377 C45.59099402 0.80713381 53.03953409 0.94271162 60.48802185 1.08229065 C60.48802185 1.41229065 60.48802185 1.74229065 60.48802185 2.08229065 C40.02802185 2.08229065 19.56802185 2.08229065 -1.51197815 2.08229065 C-1.3934734 15.96357162 -1.3934734 15.96357162 -1.24171448 29.84449768 C-1.23294734 31.59302724 -1.22530394 33.34156294 -1.2190094 35.09010315 C-1.2036615 35.98785461 -1.1883136 36.88560608 -1.17250061 37.81056213 C-1.16971168 44.52073897 -2.3928971 48.69153255 -6.94947815 53.83229065 C-11.79112804 58.08349543 -15.48692823 58.52067374 -21.8205719 58.40260315 C-25.58862255 57.9541559 -27.68671941 56.56300564 -30.51197815 54.08229065 C-31.27510315 53.44291565 -32.03822815 52.80354065 -32.82447815 52.14479065 C-34.76255242 49.7760332 -35.17752836 48.09233878 -35.51197815 45.08229065 C-34.52197815 45.74229065 -33.53197815 46.40229065 -32.51197815 47.08229065 C-32.84197815 47.74229065 -33.17197815 48.40229065 -33.51197815 49.08229065 C-32.55291565 49.23697815 -32.55291565 49.23697815 -31.57447815 49.39479065 C-30.89385315 49.62166565 -30.21322815 49.84854065 -29.51197815 50.08229065 C-29.18197815 51.07229065 -28.85197815 52.06229065 -28.51197815 53.08229065 C-22.86119219 54.54055799 -16.09845888 55.04637966 -10.51197815 53.08229065 C-9.14953019 51.4393387 -7.8133294 49.77404727 -6.51197815 48.08229065 C-5.85197815 48.08229065 -5.19197815 48.08229065 -4.51197815 48.08229065 C-4.50167068 47.49569168 -4.49136322 46.90909271 -4.48074341 46.30471802 C-4.37290621 40.22191195 -4.25829059 34.13926091 -4.1396637 28.05665588 C-4.0962415 25.78390229 -4.05457199 23.51111452 -4.0146637 21.23829651 C-3.95713696 17.97915833 -3.89339263 14.72019334 -3.8283844 11.4611969 C-3.81167191 10.43829056 -3.79495941 9.41538422 -3.77774048 8.36148071 C-3.75779526 7.4205809 -3.73785004 6.47968109 -3.71730042 5.51026917 C-3.70175613 4.67753983 -3.68621185 3.84481049 -3.67019653 2.98684692 C-3.42505038 0.03589624 -2.98009155 0.09762572 0 0 Z " fill="#5990D8" transform="translate(317.51197814941406,140.91770935058594)"/>
<path d="M0 0 C0.85875229 -0.00029205 1.71750458 -0.00058411 2.60227966 -0.00088501 C5.4430448 0.00050923 8.28354822 0.01607489 11.12426758 0.03173828 C13.09296017 0.03546808 15.06165462 0.03831521 17.03034973 0.04031372 C22.21386839 0.04795282 27.39727511 0.06760372 32.58074951 0.08972168 C37.86932867 0.11017413 43.1579259 0.11931415 48.4465332 0.12939453 C58.82483761 0.15084931 69.20305892 0.18498863 79.58129883 0.22705078 C80.57129883 2.20705078 80.57129883 2.20705078 81.58129883 4.22705078 C80.46931625 4.21816833 79.35733368 4.20928589 78.21165466 4.20013428 C67.72128131 4.11897194 57.23097184 4.05904857 46.74035549 4.01980209 C41.34727813 3.99894658 35.95445468 3.97066582 30.56152344 3.92529297 C25.35493036 3.88176306 20.14858118 3.85789836 14.94182014 3.84754181 C12.95752181 3.8401633 10.9732365 3.82575473 8.98904228 3.80413055 C6.2049688 3.77500173 3.42189719 3.77109875 0.63769531 3.77294922 C-0.58690399 3.75137756 -0.58690399 3.75137756 -1.83624268 3.72937012 C-7.47989178 3.76983515 -10.72920339 5.07572856 -15.41870117 8.22705078 C-15.41870117 7.23705078 -15.41870117 6.24705078 -15.41870117 5.22705078 C-14.42870117 5.22705078 -13.43870117 5.22705078 -12.41870117 5.22705078 C-12.08870117 4.23705078 -11.75870117 3.24705078 -11.41870117 2.22705078 C-7.57531596 -0.33520603 -4.45251011 -0.03942473 0 0 Z " fill="#081D73" transform="translate(300.418701171875,58.77294921875)"/>
<path d="M0 0 C1.51394348 0.00438835 1.51394348 0.00438835 3.05847168 0.00886536 C6.34934681 0.02387962 9.63910127 0.06800479 12.9296875 0.11328125 C15.18797856 0.1302526 17.44628019 0.1458706 19.70458984 0.16015625 C38.07736168 0.30180798 56.44476568 0.72917877 74.8046875 1.42578125 C74.8046875 1.75578125 74.8046875 2.08578125 74.8046875 2.42578125 C63.6676301 3.57092739 52.61079322 3.51105571 41.4296875 3.42578125 C37.88021119 3.3990312 34.33078976 3.37914794 30.78125 3.36328125 C29.98320953 3.35498291 29.18516907 3.34668457 28.36294556 3.33813477 C20.35288522 3.186278 20.35288522 3.186278 12.8046875 5.42578125 C11.81855469 5.21115234 11.81855469 5.21115234 10.8125 4.9921875 C6.43530075 4.16790972 2.12260428 4.32184802 -2.3203125 4.36328125 C-3.22652344 4.36779297 -4.13273437 4.37230469 -5.06640625 4.37695312 C-6.74366578 4.38565003 -8.42091684 4.39640538 -10.09814453 4.40991211 C-11.79716011 4.42276846 -13.49624828 4.42578125 -15.1953125 4.42578125 C-10.56561173 -0.47878904 -6.31905811 -0.11534841 0 0 Z " fill="#5DA9EC" transform="translate(301.1953125,111.57421875)"/>
<path d="M0 0 C0.33 0 0.66 0 1 0 C1.0270043 1.45823212 1.04639787 2.91660675 1.0625 4.375 C1.07410156 5.18710938 1.08570313 5.99921875 1.09765625 6.8359375 C1 9 1 9 0 11 C-1.66500443 11.34153937 -3.33178677 11.67449498 -5 12 C-5.66 12.66 -6.32 13.32 -7 14 C-10.33019407 15.17811274 -13.54662059 15.12077145 -17.05371094 15.11352539 C-18.27467468 15.11344986 -19.49563843 15.11337433 -20.75360107 15.11329651 C-22.06725647 15.10813522 -23.38091187 15.10297394 -24.734375 15.09765625 C-26.0962926 15.09579021 -27.45821088 15.09436718 -28.82012939 15.09336853 C-32.39741889 15.08955803 -35.97466752 15.07974032 -39.55194092 15.06866455 C-43.20519457 15.05841884 -46.85845486 15.05386415 -50.51171875 15.04882812 C-57.67449776 15.03811669 -64.83724314 15.02105794 -72 15 C-72.59049862 19.88455576 -73.12639184 24.70196712 -73.1328125 29.62890625 C-73.13410156 30.60150391 -73.13539063 31.57410156 -73.13671875 32.57617188 C-73.13285156 33.56166016 -73.12898438 34.54714844 -73.125 35.5625 C-73.12886719 36.55185547 -73.13273437 37.54121094 -73.13671875 38.56054688 C-73.13093829 42.91611995 -73.05128001 47.15616622 -72.44140625 51.47265625 C-71.93158457 55.54671799 -72.55006753 58.18438823 -74 62 C-74.66 62.66 -75.32 63.32 -76 64 C-77.125 59.25 -77.125 59.25 -76 57 C-75.88273341 55.61182327 -75.82318594 54.21851286 -75.79467773 52.82568359 C-75.77473251 51.96494232 -75.75478729 51.10420105 -75.73423767 50.21737671 C-75.71752518 49.28712677 -75.70081268 48.35687683 -75.68359375 47.3984375 C-75.66281265 46.44683746 -75.64203156 45.49523743 -75.62062073 44.51480103 C-75.55511867 41.46827568 -75.4962372 38.42166257 -75.4375 35.375 C-75.39431541 33.31249084 -75.35070114 31.24999063 -75.30664062 29.1875 C-75.1994366 24.12509046 -75.09817098 19.06259245 -75 14 C-74.23880356 13.99413376 -73.47760712 13.98826752 -72.69334412 13.98222351 C-65.49911244 13.9241782 -58.30522243 13.85203456 -51.11129665 13.76428509 C-47.41333152 13.71966944 -43.71547432 13.68039448 -40.01733398 13.65356445 C-36.44447208 13.62744281 -32.87202747 13.5869793 -29.29942513 13.53681374 C-27.94042233 13.52020455 -26.58134745 13.50865336 -25.22225761 13.50238609 C-13.66452749 13.4656745 -13.66452749 13.4656745 -3.6875 8.1875 C-1.6818245 5.58755027 -0.85925223 3.15059152 0 0 Z " fill="#011166" transform="translate(391,129)"/>
<path d="M0 0 C10.77941622 -0.11618135 21.5586819 -0.20486081 32.33859825 -0.25906086 C37.34493606 -0.28508281 42.35084345 -0.3203448 47.35693359 -0.37719727 C52.19397804 -0.43178212 57.03061017 -0.46147613 61.867939 -0.47438622 C63.70743926 -0.48357878 65.54691861 -0.50152939 67.38624191 -0.52865028 C87.02087172 -0.80647966 87.02087172 -0.80647966 94 5 C96.98557011 9.04250242 98.63945375 12.88437003 98 18 C95 14.375 95 14.375 95 11 C94.34 11 93.68 11 93 11 C93 9.68 93 8.36 93 7 C92.29875 6.87625 91.5975 6.7525 90.875 6.625 C87.82343613 5.96161655 84.94659062 5.02788045 82 4 C82 3.34 82 2.68 82 2 C80.7788147 2.00785522 80.7788147 2.00785522 79.53295898 2.01586914 C53.00998238 2.16050331 26.51434026 1.64748925 0 1 C0 0.67 0 0.34 0 0 Z " fill="#4876C3" transform="translate(294,111)"/>
<path d="M0 0 C1.0725 0.474375 2.145 0.94875 3.25 1.4375 C5.80839865 2.53766332 8.25835017 3.45167003 11 4 C10.01 4.495 10.01 4.495 9 5 C9 5.99 9 6.98 9 8 C9.928125 8.1546875 9.928125 8.1546875 10.875 8.3125 C13 9 13 9 15 12 C17.05925139 12.72382467 17.05925139 12.72382467 19 13 C19.144375 13.763125 19.28875 14.52625 19.4375 15.3125 C19.9632594 18.08172908 19.9632594 18.08172908 21 21 C23.01508358 21.73323796 23.01508358 21.73323796 25 22 C25 22.99 25 23.98 25 25 C25.99 25 26.98 25 28 25 C28.33 25.99 28.66 26.98 29 28 C29.99 28 30.98 28 32 28 C33.38123963 29.96722008 34.71488126 31.96868328 36 34 C36.99 34.495 36.99 34.495 38 35 C38.144375 35.61875 38.28875 36.2375 38.4375 36.875 C39.09717457 39.36710392 40.08288629 40.3329446 42 42 C39 42 39 42 37.640625 40.6796875 C37.18171875 40.08414063 36.7228125 39.48859375 36.25 38.875 C33.63284199 35.65388245 30.84906396 33.04458157 27.66015625 30.40234375 C25.29638049 28.40564846 23.15820839 26.21500334 21 24 C20.21625 23.236875 19.4325 22.47375 18.625 21.6875 C16.52062998 19.53302594 14.5748617 17.35184656 12.625 15.0625 C9.81292408 11.80221111 6.83118251 9.0504782 3.51171875 6.3203125 C1.70038049 4.73831681 0.31439033 3.01024403 -1 1 C-0.67 0.67 -0.34 0.34 0 0 Z " fill="#191950" transform="translate(162,77)"/>
<path d="M0 0 C2 1 4 2 6 3 C6 3.99 6 4.98 6 6 C6.66 6 7.32 6 8 6 C8 6.66 8 7.32 8 8 C9.65 8.33 11.3 8.66 13 9 C13.33 10.65 13.66 12.3 14 14 C15.32 14.33 16.64 14.66 18 15 C18.33 16.32 18.66 17.64 19 19 C20.1446875 19.0928125 20.1446875 19.0928125 21.3125 19.1875 C24.8924616 20.26981397 25.15650045 21.82918077 27 25 C28.051875 25.61875 29.10375 26.2375 30.1875 26.875 C31.115625 27.57625 32.04375 28.2775 33 29 C33.375 32.75 33.375 32.75 33 36 C26.58943445 30.72909055 20.82349739 24.90080045 15 19 C14.10410156 18.11441406 13.20820313 17.22882813 12.28515625 16.31640625 C10 14 10 14 8.0625 11.5 C6.33147675 9.40179 4.87231367 8.06278471 2.75 6.4375 C1.8425 5.633125 0.935 4.82875 0 4 C0 2.68 0 1.36 0 0 Z " fill="#100E50" transform="translate(205,119)"/>
<path d="M0 0 C16.66666667 16.66666667 33.33333333 33.33333333 50 50 C49.34 50.66 48.68 51.32 48 52 C46.14453125 49.70507812 46.14453125 49.70507812 44.2890625 47.41015625 C43.0333609 45.86733563 43.0333609 45.86733563 41 45 C41 44.34 41 43.68 41 43 C40.38125 42.9175 39.7625 42.835 39.125 42.75 C36.29170473 41.75001343 36.32380759 40.64761518 35 38 C31.96691726 35.24265206 29.09788183 33.0616293 25.625 30.875 C24.75875 30.25625 23.8925 29.6375 23 29 C23 28.01 23 27.02 23 26 C22.1028125 25.566875 22.1028125 25.566875 21.1875 25.125 C19 24 19 24 16 22 C16 21.34 16 20.68 16 20 C15.38125 19.7525 14.7625 19.505 14.125 19.25 C11.64931313 17.79371361 11.04874998 16.62187494 10 14 C9.34 14 8.68 14 8 14 C8 12.68 8 11.36 8 10 C6.02 9.34 4.04 8.68 2 8 C2 7.01 2 6.02 2 5 C1.34 5 0.68 5 0 5 C0 3.35 0 1.7 0 0 Z " fill="#090944" transform="translate(112,103)"/>
<path d="M0 0 C1.13732426 3.40401948 0.83989957 5.77456664 0.0625 9.25 C-0.13214844 10.14203125 -0.32679688 11.0340625 -0.52734375 11.953125 C-0.76130859 12.96632812 -0.76130859 12.96632812 -1 14 C-1.63421875 14.12246094 -2.2684375 14.24492187 -2.921875 14.37109375 C-5.19716567 14.80696091 -5.19716567 14.80696091 -6.25 17.0625 C-6.4975 17.701875 -6.745 18.34125 -7 19 C-8.32 19 -9.64 19 -11 19 C-11 19.66 -11 20.32 -11 21 C-10.34 21.33 -9.68 21.66 -9 22 C-9.99 22.33 -10.98 22.66 -12 23 C-12.33 22.34 -12.66 21.68 -13 21 C-13.66 21.66 -14.32 22.32 -15 23 C-21.9866979 24.04211447 -29.06647775 24.48575477 -36 23 C-36 22.34 -36 21.68 -36 21 C-36.66 21 -37.32 21 -38 21 C-38.33 19.68 -38.66 18.36 -39 17 C-37.75476563 17.47953125 -37.75476563 17.47953125 -36.484375 17.96875 C-29.37967325 20.07148684 -20.95682123 20.40564699 -13.91015625 17.90234375 C-7.29173762 14.17015279 -3.37588325 9.60350376 -0.6875 2.5625 C-0.460625 1.716875 -0.23375 0.87125 0 0 Z " fill="#191955" transform="translate(247,182)"/>
<path d="M0 0 C0.99 0.495 0.99 0.495 2 1 C-0.55630567 5.26050945 -2.49766621 7.85081893 -7 10 C-10.10688782 10.36076355 -10.10688782 10.36076355 -13.6262207 10.34057617 C-14.27068649 10.34101425 -14.91515228 10.34145233 -15.57914734 10.34190369 C-17.69500746 10.3398249 -19.81006072 10.31653869 -21.92578125 10.29296875 C-23.39836698 10.28736952 -24.87095831 10.28310096 -26.34355164 10.28010559 C-30.20866479 10.26868248 -34.07343668 10.23923756 -37.93841553 10.20599365 C-41.88663111 10.17523783 -45.83490213 10.16158851 -49.78320312 10.14648438 C-57.52229055 10.11436504 -65.26109735 10.06319987 -73 10 C-73 9.34 -73 8.68 -73 8 C-71.80729744 7.9845388 -71.80729744 7.9845388 -70.59049988 7.96876526 C-63.10084256 7.87082912 -55.61126847 7.76832019 -48.12174511 7.66066074 C-44.27121518 7.60547233 -40.42067759 7.55205887 -36.57006836 7.50268555 C-32.85473844 7.45498176 -29.13950036 7.40263679 -25.42428017 7.34705925 C-24.00611976 7.32666295 -22.58793419 7.30794537 -21.16972923 7.29092598 C-19.18495279 7.26682194 -17.20025845 7.2362214 -15.21557617 7.20532227 C-14.08528488 7.18977798 -12.95499359 7.1742337 -11.79045105 7.15821838 C-8.91571658 7.11747033 -8.91571658 7.11747033 -6 6 C-6 5.34 -6 4.68 -6 4 C-4.68 4 -3.36 4 -2 4 C-1.34 2.68 -0.68 1.36 0 0 Z " fill="#61ABEC" transform="translate(389,132)"/>
<path d="M0 0 C5.06729756 4.23905201 9.79769823 8.67521334 14.4375 13.375 C15.12126709 14.06255371 15.80503418 14.75010742 16.50952148 15.45849609 C19.40504864 18.37021785 22.29453232 21.28790969 25.18457031 24.20507812 C27.30845111 26.34714447 29.43540535 28.48612575 31.5625 30.625 C32.20437256 31.2751709 32.84624512 31.9253418 33.50756836 32.59521484 C37.50870654 36.61775507 41.64779866 40.35916233 46 44 C45.505 44.99 45.505 44.99 45 46 C41.51375944 45.3543999 38.87501211 44.07639763 36 42 C36 41.01 36 40.02 36 39 C35.01 38.67 34.02 38.34 33 38 C32.67 37.01 32.34 36.02 32 35 C31.34 34.67 30.68 34.34 30 34 C30 33.34 30 32.68 30 32 C29.34 32 28.68 32 28 32 C25.79679002 30.07219127 24.22198195 28.45702165 22.9375 25.8125 C22.0805106 23.63941744 22.0805106 23.63941744 19 23 C17.98648336 21.34151823 16.98879205 19.67334039 16 18 C13.55127083 15.3579501 11.06926823 13.05509973 8.25 10.8125 C6 9 6 9 5 7 C4.01 6.67 3.02 6.34 2 6 C2 5.34 2 4.68 2 4 C1.34 4 0.68 4 0 4 C0 2.68 0 1.36 0 0 Z " fill="#0B0C4A" transform="translate(162,154)"/>
<path d="M0 0 C0.495 1.485 0.495 1.485 1 3 C-2.35177287 8.58628812 -2.35177287 8.58628812 -5.96970749 9.49440479 C-6.69068241 9.55255202 -7.41165733 9.61069925 -8.15447998 9.67060852 C-9.35117435 9.76874312 -9.35117435 9.76874312 -10.57204437 9.86886024 C-14.26905521 10.06854474 -17.95120477 10.14751493 -21.65332031 10.14526367 C-22.46590302 10.14862228 -23.27848572 10.1519809 -24.11569214 10.15544128 C-26.76985245 10.16484931 -29.42394911 10.16688856 -32.078125 10.16796875 C-33.93658473 10.17118603 -35.79504421 10.17455045 -37.65350342 10.17805481 C-41.53333118 10.18401891 -45.41313674 10.18589728 -49.29296875 10.18530273 C-54.26168182 10.18520072 -59.23025325 10.19890547 -64.19893265 10.21607494 C-68.03021906 10.22719026 -71.86147102 10.22922216 -75.69277191 10.22869301 C-77.52517947 10.2298718 -79.35758795 10.23428793 -81.18997955 10.24202538 C-83.74817419 10.25182524 -86.30605815 10.24894836 -88.86425781 10.24291992 C-89.61760406 10.24853943 -90.37095032 10.25415894 -91.14712524 10.25994873 C-95.20706852 10.23564381 -98.34560319 9.80712269 -102 8 C-101.67 6.68 -101.34 5.36 -101 4 C-100.51401337 4.48699371 -100.02802673 4.97398743 -99.52731323 5.47573853 C-95.96206166 7.62599657 -92.60527702 7.41890425 -88.56298828 7.38818359 C-87.71372772 7.39344055 -86.86446716 7.39869751 -85.98947144 7.40411377 C-83.18289782 7.4173138 -80.37689187 7.40857412 -77.5703125 7.3984375 C-75.61742036 7.40045861 -73.66452896 7.40337036 -71.7116394 7.40713501 C-67.61774514 7.41155868 -63.52404722 7.40512726 -59.43017578 7.39111328 C-54.18891273 7.37404407 -48.94811132 7.383848 -43.70686531 7.40183067 C-39.67305035 7.41268664 -35.63934426 7.40921344 -31.60552597 7.4014473 C-29.67347026 7.39944913 -27.74140459 7.40189108 -25.8093605 7.40888596 C-23.10457559 7.41652768 -20.40053076 7.40485718 -17.69580078 7.38818359 C-16.90079163 7.39425629 -16.10578247 7.40032898 -15.28668213 7.40658569 C-10.46664917 7.35170047 -7.19264412 6.62674735 -3 4 C-1.14684743 1.95053601 -1.14684743 1.95053601 0 0 Z " fill="#02196D" transform="translate(389,85)"/>
<path d="M0 0 C0.99 0.33 1.98 0.66 3 1 C3 1.66 3 2.32 3 3 C2.01 3.495 2.01 3.495 1 4 C0.54791131 6.02651748 0.54791131 6.02651748 0.41015625 8.45703125 C0.33684082 9.36662598 0.26352539 10.2762207 0.18798828 11.21337891 C0.12595215 12.13296387 0.06391602 13.05254883 0 14 C-0.05559082 14.78681152 -0.11118164 15.57362305 -0.16845703 16.38427734 C-0.94117642 28.47491299 -1.10374484 40.57610005 -1.125 52.6875 C-1.1275882 53.37806488 -1.13017639 54.06862976 -1.13284302 54.78012085 C-1.13869158 56.75314481 -1.13592395 58.72618857 -1.1328125 60.69921875 C-1.13168457 61.84221436 -1.13055664 62.98520996 -1.12939453 64.1628418 C-1.12567471 67.0774386 -1.12567471 67.0774386 0 70 C-0.99 69.67 -1.98 69.34 -3 69 C-3.06957765 60.74182246 -3.12285044 52.48376785 -3.15543652 44.22536945 C-3.17107795 40.39045657 -3.19228805 36.55574455 -3.22631836 32.72094727 C-3.25896667 29.01862304 -3.27686447 25.31649175 -3.28463173 21.61403465 C-3.29016547 20.20305533 -3.30097164 18.79208631 -3.31719017 17.38118935 C-3.33903449 15.40177373 -3.340226 13.42216307 -3.34057617 11.44262695 C-3.34723801 10.31677689 -3.35389984 9.19092682 -3.36076355 8.03096008 C-2.95886608 4.65441277 -1.9427531 2.75550626 0 0 Z " fill="#5C9DE7" transform="translate(285,117)"/>
<path d="M0 0 C2.80023953 1.58949295 4.66168032 3.57183056 6.76171875 6 C4.78171875 6 2.80171875 6 0.76171875 6 C1.09171875 5.34 1.42171875 4.68 1.76171875 4 C-3.80363091 1.59336231 -9.27513992 1.38862295 -15.23828125 2 C-18.69174273 3.34746524 -18.69174273 3.34746524 -21.23828125 5 C-21.89828125 5 -22.55828125 5 -23.23828125 5 C-23.56828125 5.66 -23.89828125 6.32 -24.23828125 7 C-26.85214264 11.87128713 -26.85214264 11.87128713 -30.23828125 13 C-30.23828125 12.34 -30.23828125 11.68 -30.23828125 11 C-29.57828125 11 -28.91828125 11 -28.23828125 11 C-28.23828125 10.34 -28.23828125 9.68 -28.23828125 9 C-28.89828125 8.67 -29.55828125 8.34 -30.23828125 8 C-23.64120832 -2.4953433 -10.86158265 -4.58257442 0 0 Z " fill="#63A0E6" transform="translate(234.23828125,64)"/>
<path d="M0 0 C1.32 0.66 2.64 1.32 4 2 C3.38511719 2.76183594 3.38511719 2.76183594 2.7578125 3.5390625 C-2.31960875 10.02552888 -5.00801614 15.54706469 -4 24 C-3.27858009 26.92928195 -2.46067221 29.8010549 -1.55859375 32.6796875 C-1 35 -1 35 -2 37 C-2.66 37 -3.32 37 -4 37 C-9.13314026 27.58924286 -7.62932619 15.76797032 -5.1875 5.625 C-3.87904366 2.73262282 -2.69322052 1.61593231 0 0 Z " fill="#0F0E50" transform="translate(113,68)"/>
<path d="M0 0 C2.25 0.875 2.25 0.875 4 2 C-1.07771129 3.66698315 -5.59790334 4.28175086 -10.95483398 4.22705078 C-11.71663467 4.22734283 -12.47843536 4.22763489 -13.26332092 4.22793579 C-15.75769824 4.22655294 -18.25176922 4.21104155 -20.74609375 4.1953125 C-22.48486671 4.19157865 -24.22364178 4.18873343 -25.9624176 4.18673706 C-30.52116791 4.17912992 -35.07978917 4.15950672 -39.63848877 4.1373291 C-44.29738622 4.11680756 -48.95630468 4.10772189 -53.61523438 4.09765625 C-62.74354603 4.0762579 -71.87176225 4.04215746 -81 4 C-81 3.67 -81 3.34 -81 3 C-80.04422058 2.99191315 -79.08844116 2.98382629 -78.10369873 2.97549438 C-69.09854596 2.8980263 -60.09354416 2.8102853 -51.08858871 2.71247292 C-46.458992 2.6625165 -41.82941803 2.61618637 -37.19970703 2.578125 C-32.73219468 2.54126397 -28.26487293 2.49490173 -23.7975235 2.44193649 C-22.09271842 2.4233969 -20.38787249 2.40828732 -18.68300629 2.39665604 C-16.29595909 2.3797861 -13.90934797 2.35074957 -11.52246094 2.31884766 C-10.81683517 2.31668747 -10.11120941 2.31452728 -9.38420105 2.31230164 C-5.68968762 2.24917895 -3.21751501 1.78239446 0 0 Z " fill="#5CA5E5" transform="translate(382,88)"/>
<path d="M0 0 C1.33227357 3.9968207 0.60312964 7.18247131 0.05859375 11.30859375 C-0.00427196 14.19622514 0.49412103 15.57799694 2 18 C2.66 17.67 3.32 17.34 4 17 C5.89353366 18.89353366 7.4198632 20.84526801 9 23 C8.67 23.66 8.34 24.32 8 25 C4.55058402 23.75437756 1.65643053 22.56482948 -1 20 C-3.20489351 15.14923429 -4.06556783 10.15358802 -2.32421875 5 C-1.60475072 3.30873865 -0.80844708 1.65057945 0 0 Z " fill="#649CE4" transform="translate(285,67)"/>
<path d="M0 0 C0 0.66 0 1.32 0 2 C1.45833358 3.62514468 1.45833358 3.62514468 3 5 C2.113125 5.268125 1.22625 5.53625 0.3125 5.8125 C-2.82751866 6.93816707 -5.32517438 8.01298669 -8 10 C-8.87822312 12.08533633 -8.87822312 12.08533633 -9 14 C-10.65 14.33 -12.3 14.66 -14 15 C-12.47285606 9.57015489 -6.28013055 0 0 0 Z " fill="#EDEFF6" transform="translate(124,65)"/>
<path d="M0 0 C-3.10142033 1.82394742 -5.12075061 2.16149875 -8.6875 1.9375 C-15.92150927 1.78812518 -22.01517847 3.94576606 -28 8 C-28 7.01 -28 6.02 -28 5 C-27.34 5 -26.68 5 -26 5 C-25.67 3.35 -25.34 1.7 -25 0 C-24.34 0 -23.68 0 -23 0 C-23 0.66 -23 1.32 -23 2 C-22.3709375 1.7834375 -21.741875 1.566875 -21.09375 1.34375 C-13.72824824 -1.0522566 -7.65461582 -1.91365396 0 0 Z " fill="#0C0F4C" transform="translate(145,61)"/>
<path d="M0 0 C0.33 0 0.66 0 1 0 C1.01030746 0.64479813 1.02061493 1.28959625 1.03123474 1.95393372 C1.13925427 8.65339391 1.25385608 15.35271837 1.37231445 22.05200195 C1.41567788 24.55360072 1.45735191 27.05522936 1.49731445 29.55688477 C1.55498271 33.14869192 1.61868733 36.74034852 1.68359375 40.33203125 C1.70030624 41.45398392 1.71701874 42.57593658 1.73423767 43.73188782 C1.75418289 44.77274033 1.77412811 45.81359283 1.79467773 46.88598633 C1.81022202 47.80309891 1.8257663 48.72021149 1.84178162 49.66511536 C1.912291 52.15581608 1.912291 52.15581608 3 55 C2.01 54.67 1.02 54.34 0 54 C0 36.18 0 18.36 0 0 Z " fill="#6CA5EF" transform="translate(282,132)"/>
<path d="M0 0 C1.13732426 3.40401948 0.83989957 5.77456664 0.0625 9.25 C-0.13214844 10.14203125 -0.32679688 11.0340625 -0.52734375 11.953125 C-0.68332031 12.62859375 -0.83929688 13.3040625 -1 14 C-1.95132813 14.18369141 -1.95132813 14.18369141 -2.921875 14.37109375 C-5.19716567 14.80696091 -5.19716567 14.80696091 -6.25 17.0625 C-6.4975 17.701875 -6.745 18.34125 -7 19 C-8.32 18.67 -9.64 18.34 -11 18 C-10.34 18 -9.68 18 -9 18 C-8.773125 17.319375 -8.54625 16.63875 -8.3125 15.9375 C-7.19509518 13.4366416 -6.12390074 11.71812045 -4.5 9.5625 C-2.24260214 6.52600022 -0.98816171 3.6831482 0 0 Z " fill="#060549" transform="translate(247,182)"/>
<path d="M0 0 C1.0725 0.474375 2.145 0.94875 3.25 1.4375 C5.80839865 2.53766332 8.25835017 3.45167003 11 4 C10.01 4.495 10.01 4.495 9 5 C9 5.99 9 6.98 9 8 C10.32 8.33 11.64 8.66 13 9 C13 9.99 13 10.98 13 12 C7.36984457 10.97296066 3.58293826 6.94037593 0.0625 2.625 C-0.288125 2.08875 -0.63875 1.5525 -1 1 C-0.67 0.67 -0.34 0.34 0 0 Z " fill="#0C0B51" transform="translate(162,77)"/>
<path d="M0 0 C3.40403732 5.10605597 2.66346046 11.04817991 2 17 C0.72249231 20.32953223 -0.88067467 23.13891081 -3 26 C-3.99 25.67 -4.98 25.34 -6 25 C-5.175 24.01 -4.35 23.02 -3.5 22 C0.07398424 16.4482773 -0.65096771 10.65563673 -0.921875 4.31640625 C-0.94765625 3.22199219 -0.9734375 2.12757812 -1 1 C-0.67 0.67 -0.34 0.34 0 0 Z " fill="#64A4EA" transform="translate(244,75)"/>
<path d="M0 0 C0.99 0.33 1.98 0.66 3 1 C3.69658363 2.65438613 4.36096883 4.32254318 5 6 C6.39585785 7.81476003 6.39585785 7.81476003 8 9 C8.66 9 9.32 9 10 9 C10.66 8.34 11.32 7.68 12 7 C12.99 9.97 13.98 12.94 15 16 C10.31095412 14.57699887 7.48389525 11.84303666 4.1875 8.375 C3.68541016 7.859375 3.18332031 7.34375 2.66601562 6.8125 C1.43703773 5.54840846 0.21753999 4.27511194 -1 3 C-0.67 2.01 -0.34 1.02 0 0 Z " fill="#050546" transform="translate(147,154)"/>
<path d="M0 0 C0.66 0.33 1.32 0.66 2 1 C-0.73624467 5.73580808 -2.68292829 8.41420668 -8 10 C-12.3704752 9.93749022 -16.66384886 9.53397707 -21 9 C-21 8.67 -21 8.34 -21 8 C-20.16855469 7.93941406 -19.33710938 7.87882813 -18.48046875 7.81640625 C-17.39378906 7.73261719 -16.30710937 7.64882812 -15.1875 7.5625 C-14.10855469 7.48128906 -13.02960938 7.40007812 -11.91796875 7.31640625 C-8.94010095 7.09787539 -8.94010095 7.09787539 -6 6 C-6 5.34 -6 4.68 -6 4 C-4.68 4 -3.36 4 -2 4 C-1.34 2.68 -0.68 1.36 0 0 Z " fill="#5EA0E5" transform="translate(389,132)"/>
<path d="M0 0 C-0.99 0.495 -0.99 0.495 -2 1 C-2 2.32 -2 3.64 -2 5 C-2.66 4.67 -3.32 4.34 -4 4 C-3.67 3.34 -3.34 2.68 -3 2 C-3.66 2 -4.32 2 -5 2 C-5 2.66 -5 3.32 -5 4 C-8.79568461 4.97798721 -11.5005999 4.92653069 -15.3125 4.0625 C-16.19550781 3.86785156 -17.07851562 3.67320313 -17.98828125 3.47265625 C-18.98408203 3.23869141 -18.98408203 3.23869141 -20 3 C-20 2.67 -20 2.34 -20 2 C-19.19175781 1.95101562 -18.38351563 1.90203125 -17.55078125 1.8515625 C-16.48214844 1.77679688 -15.41351563 1.70203125 -14.3125 1.625 C-12.72888672 1.52058594 -12.72888672 1.52058594 -11.11328125 1.4140625 C-8.00199929 1.13307803 -8.00199929 1.13307803 -5.29296875 -0.1015625 C-3 -1 -3 -1 0 0 Z " fill="#03186B" transform="translate(237,106)"/>
<path d="M0 0 C0.33 0 0.66 0 1 0 C1.09796875 0.65226563 1.1959375 1.30453125 1.296875 1.9765625 C2.2535484 7.56815359 3.4238494 11.44853561 7 16 C7.5775 16.78375 8.155 17.5675 8.75 18.375 C9.1625 18.91125 9.575 19.4475 10 20 C7 20 7 20 4 18 C4 17.01 4 16.02 4 15 C2.68 14.34 1.36 13.68 0 13 C0 8.71 0 4.42 0 0 Z " fill="#171A51" transform="translate(108,177)"/>
<path d="M0 0 C0.99 0.66 1.98 1.32 3 2 C2.67 2.66 2.34 3.32 2 4 C1.01 4 0.02 4 -1 4 C-1.185625 4.61875 -1.37125 5.2375 -1.5625 5.875 C-3 8 -3 8 -6.375 9.3125 C-9.72136456 9.94715535 -10.91458935 9.94465216 -14 9 C-13.32453125 8.68546875 -12.6490625 8.3709375 -11.953125 8.046875 C-5.32416431 4.93666114 -5.32416431 4.93666114 0 0 Z " fill="#1C1952" transform="translate(155,192)"/>
<path d="M0 0 C5.62219846 4.66522851 11.16010796 9.51259405 16 15 C16 15.66 16 16.32 16 17 C12.25013126 15.75004375 11.37836484 14.09908146 9 11 C6.57482454 8.35435405 5.43760767 7.14586922 2 6 C2 5.34 2 4.68 2 4 C1.34 4 0.68 4 0 4 C0 2.68 0 1.36 0 0 Z " fill="#0A0940" transform="translate(162,154)"/>
<path d="M0 0 C2.6875 0 2.6875 0 6 1 C7.5672576 2.9325263 8.7330883 4.90643884 9.921875 7.08984375 C10.97321307 9.15203198 10.97321307 9.15203198 13 11 C8.1371148 10.58318127 6.13513693 8.63015855 3 5 C1.94712186 3.36622358 0.9272999 1.70818403 0 0 Z " fill="#14134F" transform="translate(132,142)"/>
<path d="M0 0 C0.99 0 1.98 0 3 0 C1.54905987 3.38552696 -0.1216504 5.68132949 -3 8 C-6.99066575 9.10380117 -10.01235853 9.05555215 -14 8 C-14 7.67 -14 7.34 -14 7 C-12.98679687 6.87044922 -12.98679687 6.87044922 -11.953125 6.73828125 C-6.0935929 5.92565273 -6.0935929 5.92565273 -1.5625 2.375 C-1.046875 1.59125 -0.53125 0.8075 0 0 Z " fill="#63A5E9" transform="translate(311,189)"/>
<path d="M0 0 C1.65 0 3.3 0 5 0 C5.33 1.65 5.66 3.3 6 5 C6.66 5 7.32 5 8 5 C8 5.66 8 6.32 8 7 C8.99 7.33 9.98 7.66 11 8 C12.84499398 9.87617698 14.3683599 11.92737609 16 14 C13 14 13 14 11.46606445 12.82250977 C10.937146 12.28424561 10.40822754 11.74598145 9.86328125 11.19140625 C9.28642578 10.60939453 8.70957031 10.02738281 8.11523438 9.42773438 C7.52033203 8.81220703 6.92542969 8.19667969 6.3125 7.5625 C5.70599609 6.95083984 5.09949219 6.33917969 4.47460938 5.70898438 C0 1.1538421 0 1.1538421 0 0 Z " fill="#090943" transform="translate(110,120)"/>
<path d="M0 0 C0.33 0 0.66 0 1 0 C1.0270043 1.45823212 1.04639787 2.91660675 1.0625 4.375 C1.07410156 5.18710938 1.08570313 5.99921875 1.09765625 6.8359375 C1 9 1 9 0 11 C-1.66500443 11.34153937 -3.33178677 11.67449498 -5 12 C-5.66 12.66 -6.32 13.32 -7 14 C-10.125 14.125 -10.125 14.125 -13 14 C-12.443125 13.731875 -11.88625 13.46375 -11.3125 13.1875 C-10.549375 12.795625 -9.78625 12.40375 -9 12 C-8.154375 11.566875 -7.30875 11.13375 -6.4375 10.6875 C-2.54581157 7.99325416 -0.85190067 4.60026363 0 0 Z " fill="#091C72" transform="translate(391,129)"/>
<path d="M0 0 C3.14330223 0.3492558 4.79491452 0.83925733 7.3125 2.8125 C9 5 9 5 9 9 C9.66 9 10.32 9 11 9 C10.67 9.99 10.34 10.98 10 12 C9.34 12 8.68 12 8 12 C6.5625 10.13671875 6.5625 10.13671875 5 7.6875 C4.484375 6.88699219 3.96875 6.08648437 3.4375 5.26171875 C2.963125 4.51535156 2.48875 3.76898438 2 3 C1.34 2.01 0.68 1.02 0 0 Z " fill="#141453" transform="translate(238,155)"/>
<path d="M0 0 C0.99 0 1.98 0 3 0 C3.33 2.97 3.66 5.94 4 9 C3.01 9 2.02 9 1 9 C0.01 7.02 -0.98 5.04 -2 3 C-1.34 2.01 -0.68 1.02 0 0 Z " fill="#5E9AE0" transform="translate(204,91)"/>
<path d="M0 0 C0.66 0.66 1.32 1.32 2 2 C2.99 2 3.98 2 5 2 C6.6875 4 6.6875 4 8 6 C7.01 6.99 6.02 7.98 5 9 C2.69 6.69 0.38 4.38 -2 2 C-1.34 1.34 -0.68 0.68 0 0 Z " fill="#E2E2EC" transform="translate(172,160)"/>
<path d="M0 0 C3.08028948 2.77226053 4.83016411 5.00306072 6 9 C6.125 11.8125 6.125 11.8125 6 14 C3 10.375 3 10.375 3 7 C2.34 7 1.68 7 1 7 C1 5.68 1 4.36 1 3 C-0.65 2.67 -2.3 2.34 -4 2 C-2.68 1.34 -1.36 0.68 0 0 Z " fill="#5A97DD" transform="translate(386,115)"/>
<path d="M0 0 C-0.97941841 3.15590375 -2.01359085 4.00827269 -4.875 5.75 C-10.02885455 7.77433778 -15.56244407 7.24107391 -21 7 C-17.59648662 4.96780512 -14.6767073 4.63108961 -10.75 4.375 C-9.67234375 4.30023438 -8.5946875 4.22546875 -7.484375 4.1484375 C-6.25460938 4.07496094 -6.25460938 4.07496094 -5 4 C-5 3.34 -5 2.68 -5 2 C-2 0 -2 0 0 0 Z " fill="#619DE2" transform="translate(238,101)"/>
<path d="M0 0 C0.66 0.33 1.32 0.66 2 1 C2.08096803 2.45742463 2.13917774 3.91612807 2.1875 5.375 C2.22230469 6.18710938 2.25710937 6.99921875 2.29296875 7.8359375 C2.19628906 8.55007812 2.09960938 9.26421875 2 10 C1.01 10.66 0.02 11.32 -1 12 C-1.99 11.34 -2.98 10.68 -4 10 C-2.68 6.7 -1.36 3.4 0 0 Z " fill="#121452" transform="translate(160,180)"/>
<path d="M0 0 C0.66 0.66 1.32 1.32 2 2 C2.66 1.67 3.32 1.34 4 1 C5.89353366 2.89353366 7.4198632 4.84526801 9 7 C8.67 7.66 8.34 8.32 8 9 C4.68765616 7.83620352 2.1101781 6.88761214 0 4 C0 2.68 0 1.36 0 0 Z " fill="#63A8E9" transform="translate(285,83)"/>
<path d="M0 0 C0.33 0 0.66 0 1 0 C1.68473395 2.32809543 2.34853151 4.66237777 3 7 C3.268125 7.845625 3.53625 8.69125 3.8125 9.5625 C4.0772848 13.00470238 2.70171947 15.07304251 1 18 C-0.2062252 14.38132441 -0.10816918 11.07493749 -0.0625 7.3125 C-0.05798828 6.61060547 -0.05347656 5.90871094 -0.04882812 5.18554688 C-0.03706927 3.45699462 -0.01913454 1.72848635 0 0 Z " fill="#020452" transform="translate(161,171)"/>
<path d="M0 0 C2.16874252 0.50603992 3.99967627 0.99983813 6 2 C6 2.66 6 3.32 6 4 C7.32 4 8.64 4 10 4 C10 5.98 10 7.96 10 10 C2.51708428 3.84965831 2.51708428 3.84965831 0 0 Z " fill="#252358" transform="translate(228,145)"/>
<path d="M0 0 C2.97 0.33 5.94 0.66 9 1 C8.34 2.98 7.68 4.96 7 7 C5.83040013 6.02433888 4.66438823 5.044375 3.5 4.0625 C2.8503125 3.51722656 2.200625 2.97195312 1.53125 2.41015625 C1.0259375 1.94480469 0.520625 1.47945313 0 1 C0 0.67 0 0.34 0 0 Z " fill="#1F1C58" transform="translate(172,89)"/>
<path d="M0 0 C4.41889613 1.35021826 6.34345343 3.26115668 9 7 C8.01 7 7.02 7 6 7 C4.66018514 7.3062434 3.32488113 7.63451555 2 8 C2.33 6.68 2.66 5.36 3 4 C2.01 4 1.02 4 0 4 C0 2.68 0 1.36 0 0 Z " fill="#F3F3F6" transform="translate(232,152)"/>
<path d="M0 0 C3.21524305 1.40844718 5.32183868 3.10344786 7.75 5.625 C8.67039063 6.57246094 8.67039063 6.57246094 9.609375 7.5390625 C10.29773438 8.26222656 10.29773438 8.26222656 11 9 C10.01 9.495 10.01 9.495 9 10 C7.82780457 9.21654285 6.66236332 8.42297164 5.5 7.625 C4.8503125 7.18414062 4.200625 6.74328125 3.53125 6.2890625 C3.0259375 5.86367187 2.520625 5.43828125 2 5 C2 4.34 2 3.68 2 3 C1.34 3 0.68 3 0 3 C0 2.01 0 1.02 0 0 Z " fill="#0D0D41" transform="translate(190,183)"/>
<path d="M0 0 C0.33 0 0.66 0 1 0 C1.02705308 2.41674224 1.04686438 4.8331794 1.0625 7.25 C1.07087891 7.93191406 1.07925781 8.61382812 1.08789062 9.31640625 C1.12167473 16.27593279 1.12167473 16.27593279 0 19 C-2.5625 20.25 -2.5625 20.25 -5 21 C-4.0409375 19.4221875 -4.0409375 19.4221875 -3.0625 17.8125 C-0.18359537 12.16659162 -0.18994582 6.23022305 0 0 Z " fill="#1B3C8C" transform="translate(246,79)"/>
<path d="M0 0 C2.64 0 5.28 0 8 0 C8 2.64 8 5.28 8 8 C6.85073734 7.04578192 5.70569459 6.08647955 4.5625 5.125 C3.92441406 4.59132813 3.28632813 4.05765625 2.62890625 3.5078125 C1 2 1 2 0 0 Z " fill="#0B1A72" transform="translate(383,63)"/>
<path d="M0 0 C1.13732426 3.40401948 0.83989957 5.77456664 0.0625 9.25 C-0.13214844 10.14203125 -0.32679688 11.0340625 -0.52734375 11.953125 C-0.68332031 12.62859375 -0.83929688 13.3040625 -1 14 C-1.99 14 -2.98 14 -4 14 C-3.67 13.34 -3.34 12.68 -3 12 C-3.66 11.34 -4.32 10.68 -5 10 C-4.54625 9.46375 -4.0925 8.9275 -3.625 8.375 C-1.78311688 5.68301698 -0.92028067 3.11479612 0 0 Z " fill="#1C1C52" transform="translate(247,182)"/>
<path d="M0 0 C0.625 2.375 0.625 2.375 1 5 C0.34 5.66 -0.32 6.32 -1 7 C-2.98 4.69 -4.96 2.38 -7 0 C-4.3333581 -1.33332095 -2.83319697 -0.67102033 0 0 Z " fill="#DCDDE9" transform="translate(128,112)"/>
<path d="M0 0 C0 0.66 0 1.32 0 2 C-0.66 2 -1.32 2 -2 2 C-2 2.66 -2 3.32 -2 4 C-3.62626404 5.38232443 -5.2925002 6.71937515 -7 8 C-7.66 6.68 -8.32 5.36 -9 4 C-3.375 0 -3.375 0 0 0 Z " fill="#5B96DF" transform="translate(295,62)"/>
<path d="M0 0 C2.38912018 0.20451612 4.68168403 0.59034288 7.0078125 1.171875 C3.5311787 3.31523661 0.79552055 3.38465126 -3.2421875 3.296875 C-4.31984375 3.27882812 -5.3975 3.26078125 -6.5078125 3.2421875 C-7.32765625 3.21898437 -8.1475 3.19578125 -8.9921875 3.171875 C-6.22669161 -0.09175369 -4.26804247 -0.15749234 0 0 Z " fill="#11105A" transform="translate(137.9921875,59.828125)"/>
<path d="M0 0 C1.485 0.99 1.485 0.99 3 2 C2.67 2.66 2.34 3.32 2 4 C2.61875 4.103125 3.2375 4.20625 3.875 4.3125 C6 5 6 5 8 8 C7.67 8.99 7.34 9.98 7 11 C0.28571429 4.85714286 0.28571429 4.85714286 0 0 Z " fill="#5A8ED6" transform="translate(282,186)"/>
<path d="M0 0 C3.7952131 1.49097658 5.61042731 3.75700849 8 7 C6.68 7 5.36 7 4 7 C4 6.01 4 5.02 4 4 C2.68 4.99 1.36 5.98 0 7 C0 4.69 0 2.38 0 0 Z " fill="#CDCFEC" transform="translate(108,120)"/>
<path d="M0 0 C3.48872415 1.16290805 4.09976864 2.13967609 6.1875 5.0625 C6.71730469 5.79597656 7.24710938 6.52945313 7.79296875 7.28515625 C8.19128906 7.85105469 8.58960938 8.41695312 9 9 C6.1875 8.8125 6.1875 8.8125 3 8 C0.72136847 5.11373339 0 3.6952982 0 0 Z " fill="#E8E8F3" transform="translate(169,87)"/>
<path d="M0 0 C0.66 0.33 1.32 0.66 2 1 C1.67 1.66 1.34 2.32 1 3 C0.34 3 -0.32 3 -1 3 C-1 3.99 -1 4.98 -1 6 C-0.34 6.33 0.32 6.66 1 7 C0.01 7.33 -0.98 7.66 -2 8 C-2.33 7.34 -2.66 6.68 -3 6 C-5.02463255 5.34786708 -5.02463255 5.34786708 -7 5 C-4.702779 3.25728062 -2.40133271 1.60088848 0 0 Z " fill="#1B1959" transform="translate(237,197)"/>
<path d="M0 0 C0.66 0.33 1.32 0.66 2 1 C2 1.66 2 2.32 2 3 C3.65 3.33 5.3 3.66 7 4 C6.34 5.32 5.68 6.64 5 8 C2.69 6.02 0.38 4.04 -2 2 C-1.34 1.34 -0.68 0.68 0 0 Z " fill="#DDDCE9" transform="translate(147,135)"/>
<path d="M0 0 C1.14926266 0.95421808 2.29430541 1.91352045 3.4375 2.875 C4.07558594 3.40867188 4.71367188 3.94234375 5.37109375 4.4921875 C7 6 7 6 8 8 C5.6875 8.3125 5.6875 8.3125 3 8 C0.75756777 5.13896577 0 3.65923696 0 0 Z " fill="#E0E1F0" transform="translate(116,127)"/>
<path d="M0 0 C1.32 0 2.64 0 4 0 C4 0.66 4 1.32 4 2 C4.78375 2.103125 5.5675 2.20625 6.375 2.3125 C9 3 9 3 11 6 C6.70091749 6 4.62932713 4.2851319 1 2 C0.67 1.34 0.34 0.68 0 0 Z " fill="#121252" transform="translate(151,68)"/>
<path d="M0 0 C5.66153846 1.47692308 5.66153846 1.47692308 7.375 4.125 C7.684375 5.053125 7.684375 5.053125 8 6 C7.01 6.495 7.01 6.495 6 7 C5.01 6.67 4.02 6.34 3 6 C3 5.34 3 4.68 3 4 C2.34 4 1.68 4 1 4 C0.67 2.68 0.34 1.36 0 0 Z " fill="#101054" transform="translate(208,199)"/>
<path d="M0 0 C2.64 1.65 5.28 3.3 8 5 C7.67 5.66 7.34 6.32 7 7 C4.69 6.34 2.38 5.68 0 5 C-0.5625 3.0625 -0.5625 3.0625 -1 1 C-0.67 0.67 -0.34 0.34 0 0 Z " fill="#05166D" transform="translate(285,193)"/>
<path d="M0 0 C1.98 0 3.96 0 6 0 C6.66 1.65 7.32 3.3 8 5 C6.68 5 5.36 5 4 5 C1.75 2.5 1.75 2.5 0 0 Z " fill="#EEEFF8" transform="translate(203,193)"/>
<path d="M0 0 C1.32 0.66 2.64 1.32 4 2 C3.34 3.65 2.68 5.3 2 7 C0.02 5.35 -1.96 3.7 -4 2 C-3.34 1.67 -2.68 1.34 -2 1 C-1.34 1.33 -0.68 1.66 0 2 C0 1.34 0 0.68 0 0 Z " fill="#E0DEEC" transform="translate(134,120)"/>
<path d="M0 0 C0.99 0.33 1.98 0.66 3 1 C3 2.98 3 4.96 3 7 C1.68 6.67 0.36 6.34 -1 6 C-1.625 4.125 -1.625 4.125 -2 2 C-1.34 1.34 -0.68 0.68 0 0 Z " fill="#04046D" transform="translate(118,116)"/>
<path d="M0 0 C1.65 0 3.3 0 5 0 C7.09350689 3.4019487 7.17942163 6.05272412 7 10 C5.78483364 8.17725047 4.60668208 6.3280819 3.5 4.4375 C2.0902355 1.93582181 2.0902355 1.93582181 0 0 Z " fill="#06186D" transform="translate(385,114)"/>
<path d="M0 0 C3.125 0.75 3.125 0.75 6 2 C6.33 2.66 6.66 3.32 7 4 C0.9453125 4.1953125 0.9453125 4.1953125 -1 4 C-1.66 3.34 -2.32 2.68 -3 2 C-2.01 1.34 -1.02 0.68 0 0 Z " fill="#60A2E6" transform="translate(379,112)"/>
<path d="M0 0 C2.8125 0.0625 2.8125 0.0625 6 1 C8 4.375 8 4.375 9 8 C8.01 9.485 8.01 9.485 7 11 C6.34 8.69 5.68 6.38 5 4 C4.34 4 3.68 4 3 4 C3 3.34 3 2.68 3 2 C2.01 1.67 1.02 1.34 0 1 C0 0.67 0 0.34 0 0 Z " fill="#0D277A" transform="translate(238,67)"/>
<path d="M0 0 C3.74281699 2.38179263 6.97727468 4.74475735 10 8 C3.51510574 6.53172205 3.51510574 6.53172205 1.0625 4 C0 2 0 2 0 0 Z " fill="#DEE1F0" transform="translate(146,65)"/>
<path d="M0 0 C0.99 0.33 1.98 0.66 3 1 C2.67 1.66 2.34 2.32 2 3 C-0.28515625 3.4140625 -0.28515625 3.4140625 -3.0625 3.625 C-4.44115234 3.73714844 -4.44115234 3.73714844 -5.84765625 3.8515625 C-6.55792969 3.90054688 -7.26820313 3.94953125 -8 4 C-8.33 3.01 -8.66 2.02 -9 1 C-7.700625 1.020625 -6.40125 1.04125 -5.0625 1.0625 C-3.70834367 1.08399454 -2.35243917 1.07148199 -1 1 C-0.67 0.67 -0.34 0.34 0 0 Z " fill="#04034A" transform="translate(141,202)"/>
<path d="M0 0 C4.03384128 2.07143201 5.92856799 3.96615872 8 8 C7.01 8.495 7.01 8.495 6 9 C5.67 7.68 5.34 6.36 5 5 C3.35 4.67 1.7 4.34 0 4 C0 2.68 0 1.36 0 0 Z " fill="#080554" transform="translate(238,151)"/>
<path d="M0 0 C1.5 1.3125 1.5 1.3125 3 3 C3 3.99 3 4.98 3 6 C2.34 6 1.68 6 1 6 C0.34 7.32 -0.32 8.64 -1 10 C-1.125 2.25 -1.125 2.25 0 0 Z " fill="#D1D3E4" transform="translate(109,82)"/>
<path d="M0 0 C0.66 0 1.32 0 2 0 C1.835 0.61875 1.67 1.2375 1.5 1.875 C0.79924683 6.25470729 0.92265749 10.57428989 1 15 C0.01 14.67 -0.98 14.34 -2 14 C-1.85970581 11.8537974 -1.71261836 9.70803782 -1.5625 7.5625 C-1.48128906 6.36753906 -1.40007812 5.17257813 -1.31640625 3.94140625 C-1 1 -1 1 0 0 Z " fill="#10267D" transform="translate(282,69)"/>
<path d="M0 0 C6.52307692 1.35384615 6.52307692 1.35384615 8.9375 4.625 C9.288125 5.40875 9.63875 6.1925 10 7 C5.04303419 5.76075855 2.88341534 4.21422242 0 0 Z " fill="#050546" transform="translate(157,73)"/>
<path d="M0 0 C0.99 0 1.98 0 3 0 C3 0.66 3 1.32 3 2 C3.928125 2.12375 3.928125 2.12375 4.875 2.25 C7 3 7 3 8.25 5.0625 C8.4975 5.701875 8.745 6.34125 9 7 C6 7 6 7 4.39453125 5.46875 C3.87246094 4.8190625 3.35039062 4.169375 2.8125 3.5 C2.28269531 2.8503125 1.75289062 2.200625 1.20703125 1.53125 C0.80871094 1.0259375 0.41039062 0.520625 0 0 Z " fill="#282858" transform="translate(220,137)"/>
<path d="M0 0 C0.66 0 1.32 0 2 0 C2.33 0.66 2.66 1.32 3 2 C3.99 2.33 4.98 2.66 6 3 C5.67 4.65 5.34 6.3 5 8 C2.20127563 5.47211993 0.54226981 3.79588866 0 0 Z " fill="#E8EAF6" transform="translate(110,97)"/>
<path d="M0 0 C0.33 0.99 0.66 1.98 1 3 C-1.97 3.66 -4.94 4.32 -8 5 C-8 4.01 -8 3.02 -8 2 C-2.25 0 -2.25 0 0 0 Z " fill="#020356" transform="translate(130,58)"/>
<path d="M0 0 C0.598125 0.20625 1.19625 0.4125 1.8125 0.625 C1.5 2.5625 1.5 2.5625 0.8125 4.625 C-0.1775 4.955 -1.1675 5.285 -2.1875 5.625 C-3.1775 4.305 -4.1675 2.985 -5.1875 1.625 C-2.1875 -0.375 -2.1875 -0.375 0 0 Z " fill="#ECEDF5" transform="translate(192.1875,176.375)"/>
<path d="M0 0 C0.33 0 0.66 0 1 0 C1 3.3 1 6.6 1 10 C0.34 10 -0.32 10 -1 10 C-1.9765625 3.9453125 -1.9765625 3.9453125 -2 2 C-1.34 1.34 -0.68 0.68 0 0 Z " fill="#020153" transform="translate(107,117)"/>
<path d="M0 0 C3.08089673 2.77280706 4.68775452 5.06326356 6 9 C4.68 8.67 3.36 8.34 2 8 C2 7.01 2 6.02 2 5 C1.34 5 0.68 5 0 5 C0 3.35 0 1.7 0 0 Z " fill="#111052" transform="translate(112,103)"/>
<path d="M0 0 C0.66 0 1.32 0 2 0 C2.125 3.375 2.125 3.375 2 7 C1.34 7.66 0.68 8.32 0 9 C0 8.34 0 7.68 0 7 C-0.66 6.67 -1.32 6.34 -2 6 C-1.34 4.02 -0.68 2.04 0 0 Z " fill="#558DD5" transform="translate(390,74)"/>
<path d="M0 0 C1.98 1.65 3.96 3.3 6 5 C5.67 5.66 5.34 6.32 5 7 C3.68 6.67 2.36 6.34 1 6 C0.67 4.02 0.34 2.04 0 0 Z " fill="#1D1D53" transform="translate(202,193)"/>
<path d="M0 0 C2.5 1.375 2.5 1.375 5 3 C5 3.66 5 4.32 5 5 C5.66 5 6.32 5 7 5 C6.67 5.99 6.34 6.98 6 8 C3.69 6.02 1.38 4.04 -1 2 C-0.67 1.34 -0.34 0.68 0 0 Z " fill="#232353" transform="translate(162,77)"/>
<path d="M0 0 C2.31 0.33 4.62 0.66 7 1 C6.67 2.65 6.34 4.3 6 6 C3.97945196 4.35830472 1.97956942 2.69088222 0 1 C0 0.67 0 0.34 0 0 Z " fill="#D7D6E8" transform="translate(152,143)"/>
<path d="M0 0 C3 1 3 1 4.1875 3.0625 C4.455625 3.701875 4.72375 4.34125 5 5 C3.35 5.33 1.7 5.66 0 6 C-0.38218767 4.34385343 -0.71395102 2.67542976 -1 1 C-0.67 0.67 -0.34 0.34 0 0 Z " fill="#E3E3F0" transform="translate(202,120)"/>
<path d="M0 0 C0.66 0 1.32 0 2 0 C2.103125 0.598125 2.20625 1.19625 2.3125 1.8125 C3.08876455 4.28243264 4.07088921 5.32251235 6 7 C3 7 3 7 0.8125 5 C0.214375 4.34 -0.38375 3.68 -1 3 C-0.67 2.01 -0.34 1.02 0 0 Z " fill="#2A2959" transform="translate(198,112)"/>
<path d="M0 0 C0 0.66 0 1.32 0 2 C-0.99 2 -1.98 2 -3 2 C-3 2.66 -3 3.32 -3 4 C-4.98 4.33 -6.96 4.66 -9 5 C-4.5 0 -4.5 0 0 0 Z " fill="#5F91DE" transform="translate(295,112)"/>
<path d="M0 0 C2.375 0.25 2.375 0.25 5 1 C6.3125 3.0625 6.3125 3.0625 7 5 C6.01 5 5.02 5 4 5 C1.8125 2.5 1.8125 2.5 0 0 Z " fill="#DEDFEE" transform="translate(194,185)"/>
<path d="M0 0 C0.33 0 0.66 0 1 0 C1.37211538 6.57403846 1.37211538 6.57403846 -0.51171875 8.73046875 C-1.00285156 9.14941406 -1.49398437 9.56835938 -2 10 C-1.85950482 8.52031676 -1.71245174 7.04125484 -1.5625 5.5625 C-1.48128906 4.73878906 -1.40007812 3.91507813 -1.31640625 3.06640625 C-1 1 -1 1 0 0 Z " fill="#050549" transform="translate(249,180)"/>
<path d="M0 0 C1.5 1.0625 1.5 1.0625 3 3 C3.1875 6.6875 3.1875 6.6875 3 10 C2.67 10 2.34 10 2 10 C1.896875 9.21625 1.79375 8.4325 1.6875 7.625 C1.22404978 4.66954819 1.22404978 4.66954819 -2 3 C-1.34 2.01 -0.68 1.02 0 0 Z " fill="#D0D2E7" transform="translate(158,170)"/>
<path d="M0 0 C2.3773161 2.3773161 2.67028521 3.70285207 3 7 C2.34 7.66 1.68 8.32 1 9 C0.63877119 7.68942607 0.28619689 6.37646376 -0.0625 5.0625 C-0.35833984 3.96615234 -0.35833984 3.96615234 -0.66015625 2.84765625 C-0.77230469 2.23792969 -0.88445312 1.62820312 -1 1 C-0.67 0.67 -0.34 0.34 0 0 Z " fill="#080749" transform="translate(248,166)"/>
<path d="M0 0 C1.98 1.65 3.96 3.3 6 5 C5.01 5.66 4.02 6.32 3 7 C0 3.375 0 3.375 0 0 Z " fill="#D3D4E5" transform="translate(148,159)"/>
<path d="M0 0 C-0.99 0.495 -0.99 0.495 -2 1 C-2 2.32 -2 3.64 -2 5 C-2.66 4.67 -3.32 4.34 -4 4 C-3.67 3.34 -3.34 2.68 -3 2 C-3.99 2.33 -4.98 2.66 -6 3 C-6.66 2.34 -7.32 1.68 -8 1 C-3.375 -1.125 -3.375 -1.125 0 0 Z " fill="#0B1D73" transform="translate(237,106)"/>
<path d="M0 0 C1.99097846 2.98646769 2.94124926 5.59687262 4 9 C2.68 8.67 1.36 8.34 0 8 C0 5.36 0 2.72 0 0 Z " fill="#051E73" transform="translate(200,89)"/>
<path d="M0 0 C0.66 0.66 1.32 1.32 2 2 C-0.3125 4.5 -0.3125 4.5 -3 7 C-3.99 7 -4.98 7 -6 7 C-5.34 6.67 -4.68 6.34 -4 6 C-3.7834375 5.0409375 -3.7834375 5.0409375 -3.5625 4.0625 C-3 2 -3 2 0 0 Z " fill="#091870" transform="translate(208,65)"/>
<path d="M0 0 C2.125 0.375 2.125 0.375 4 1 C4.33 2.65 4.66 4.3 5 6 C4.67 5.34 4.34 4.68 4 4 C2.02111039 3.27306096 0.02045442 2.60183749 -2 2 C-1.34 1.34 -0.68 0.68 0 0 Z " fill="#061067" transform="translate(238,64)"/>
<path d="M0 0 C1.67542976 0.28604898 3.34385343 0.61781233 5 1 C4.67 2.65 4.34 4.3 4 6 C2.35 4.35 0.7 2.7 -1 1 C-0.67 0.67 -0.34 0.34 0 0 Z " fill="#DBDFEF" transform="translate(180,169)"/>
<path d="M0 0 C2.375 0.1875 2.375 0.1875 5 1 C6.3125 3.5625 6.3125 3.5625 7 6 C6.01 6.495 6.01 6.495 5 7 C3.35 4.69 1.7 2.38 0 0 Z " fill="#292759" transform="translate(238,155)"/>
<path d="M0 0 C1.98 1.65 3.96 3.3 6 5 C5.01 5.66 4.02 6.32 3 7 C2.01 6.34 1.02 5.68 0 5 C-0.1875 2.375 -0.1875 2.375 0 0 Z " fill="#DBDCE7" transform="translate(137,148)"/>
<path d="M0 0 C1.14926266 0.95421808 2.29430541 1.91352045 3.4375 2.875 C4.07558594 3.40867187 4.71367187 3.94234375 5.37109375 4.4921875 C7 6 7 6 8 8 C5.04987143 6.63029745 2.4347778 5.17390875 0 3 C0 2.01 0 1.02 0 0 Z " fill="#09083A" transform="translate(128,120)"/>
<path d="M0 0 C2.12508244 3.18762365 2.5020163 5.26512223 3 9 C2.01 9.495 2.01 9.495 1 10 C-0.60725635 6.78548731 -0.05748185 3.56387464 0 0 Z " fill="#272758" transform="translate(108,92)"/>
<path d="M0 0 C1.39195915 4.17587745 -0.17676781 6.13474776 -2 10 C-2.33 10 -2.66 10 -3 10 C-3.36629408 5.72656908 -2.40814077 3.51187196 0 0 Z " fill="#51A1E2" transform="translate(390,71)"/>
</svg>
